<svg width="51" height="50" viewBox="0 0 51 50" fill="none" xmlns="http://www.w3.org/2000/svg">
<g clip-path="url(#clip0_98_305)">
<circle cx="25.5" cy="25" r="25" fill="#F5CA16"/>
<g clip-path="url(#clip1_98_305)">
<path d="M23.1837 17.9406L22.212 14.4343C21.9689 13.5571 21.1118 12.9801 20.0769 13.0004C18.5779 13.0285 17.3026 13.2765 16.2865 13.737C14.9543 14.3406 14.0386 15.3117 13.5648 16.6229L13.5336 16.7094C13.5114 16.7706 13.5 16.8352 13.5 16.9003V16.9923C13.4977 21.9062 15.7342 26.9622 19.6359 30.864C23.5359 34.764 28.5884 36.9999 33.4998 36.9999H33.5994C33.6646 36.9999 33.7293 36.9886 33.7905 36.9664L33.8769 36.9352C35.1882 36.4614 36.1592 35.5457 36.7629 34.2135C37.2234 33.1974 37.4713 31.9221 37.4995 30.4231C37.519 29.3891 36.9428 28.5311 36.0657 28.288L32.5595 27.3163C31.9056 27.135 31.3264 27.3059 30.9704 27.785L29.5485 29.6999C27.9393 29.4739 25.8689 28.2509 24.0588 26.4408C22.2488 24.6306 21.0257 22.5603 20.7997 20.9511L22.7146 19.5291C23.194 19.1734 23.3649 18.5942 23.1837 17.9406ZM22.0441 18.6263L19.8726 20.2388C19.7973 20.2947 19.7371 20.3687 19.6976 20.4538C19.6581 20.5389 19.6406 20.6326 19.6466 20.7263C19.7707 22.6622 21.1229 25.0959 23.2636 27.2366C25.4043 29.3773 27.838 30.7295 29.7739 30.8536C29.8675 30.8595 29.9612 30.842 30.0463 30.8025C30.1315 30.763 30.2054 30.7029 30.2614 30.6276L31.8739 28.4561C31.9038 28.4158 31.9739 28.3216 32.2592 28.4006L35.7654 29.3723C36.1976 29.4921 36.383 29.9758 36.3748 30.402C36.3188 33.3613 35.352 35.2027 33.5007 35.8749H33.4999C28.8848 35.8749 24.1217 33.7587 20.4315 30.0685C16.7412 26.3782 14.625 21.6147 14.625 16.9993C15.2971 15.1481 17.1386 14.1812 20.0981 14.1252C20.5238 14.1169 21.0081 14.3025 21.1279 14.7346L22.0995 18.2408C22.1787 18.5261 22.0843 18.5962 22.0441 18.6261V18.6263ZM37.5 24.3846C37.5 24.5337 37.4407 24.6768 37.3352 24.7823C37.2298 24.8878 37.0867 24.9471 36.9375 24.9471C36.7883 24.9471 36.6452 24.8878 36.5398 24.7823C36.4343 24.6768 36.375 24.5337 36.375 24.3846C36.375 18.7274 31.7725 14.1249 26.1154 14.1249C25.9662 14.1249 25.8231 14.0657 25.7176 13.9602C25.6121 13.8547 25.5529 13.7116 25.5529 13.5624C25.5529 13.4132 25.6121 13.2702 25.7176 13.1647C25.8231 13.0592 25.9662 12.9999 26.1154 12.9999C27.6104 12.9999 29.0908 13.2944 30.4721 13.8665C31.8534 14.4386 33.1084 15.2772 34.1656 16.3344C35.2227 17.3915 36.0613 18.6466 36.6334 20.0278C37.2055 21.4091 37.5 22.8895 37.5 24.3846ZM25.5529 16.8908C25.5529 16.7416 25.6121 16.5986 25.7176 16.4931C25.8231 16.3876 25.9662 16.3283 26.1154 16.3283C30.5576 16.3283 34.1716 19.9424 34.1716 24.3846C34.1716 24.5337 34.1123 24.6768 34.0068 24.7823C33.9014 24.8878 33.7583 24.9471 33.6091 24.9471C33.4599 24.9471 33.3168 24.8878 33.2113 24.7823C33.1059 24.6768 33.0466 24.5337 33.0466 24.3846C33.0466 20.5627 29.9372 17.4533 26.1154 17.4533C25.9662 17.4533 25.8231 17.3941 25.7176 17.2886C25.6121 17.1831 25.5529 17.04 25.5529 16.8908ZM25.5529 20.2193C25.5529 20.0701 25.6121 19.927 25.7176 19.8215C25.8231 19.716 25.9662 19.6568 26.1154 19.6568C27.3688 19.6582 28.5705 20.1568 29.4568 21.0431C30.3432 21.9294 30.8417 23.1311 30.8431 24.3846C30.8431 24.5337 30.7839 24.6768 30.6784 24.7823C30.5729 24.8878 30.4298 24.9471 30.2806 24.9471C30.1315 24.9471 29.9884 24.8878 29.8829 24.7823C29.7774 24.6768 29.7181 24.5337 29.7181 24.3846C29.7171 23.4294 29.3371 22.5136 28.6617 21.8382C27.9863 21.1628 27.0706 20.7829 26.1154 20.7818C25.9662 20.7818 25.8231 20.7225 25.7176 20.617C25.6121 20.5115 25.5529 20.3685 25.5529 20.2193Z" fill="black"/>
</g>
</g>
<defs>
<clipPath id="clip0_98_305">
<rect width="50" height="50" fill="white" transform="translate(0.5)"/>
</clipPath>
<clipPath id="clip1_98_305">
<rect width="24" height="24" fill="white" transform="translate(13.5 13)"/>
</clipPath>
</defs>
</svg>
