<svg width="51" height="50" viewBox="0 0 51 50" fill="none" xmlns="http://www.w3.org/2000/svg">
<g clip-path="url(#clip0_98_302)">
<circle cx="25.5" cy="25" r="25" fill="#F5CA16"/>
<path d="M33.8712 19.0656L31.5073 16.7017C31.2785 16.473 30.9078 16.473 30.6785 16.7017L20.4593 26.9214C20.4523 26.9284 20.4462 26.9359 20.4392 26.9434C20.3782 26.9995 20.3298 27.0679 20.2971 27.1441L18.5698 31.2353C18.5322 31.3244 18.5173 31.4214 18.5263 31.5177C18.5353 31.614 18.568 31.7065 18.6214 31.7871C18.6749 31.8677 18.7475 31.9337 18.8327 31.9794C18.9179 32.0252 19.0131 32.0491 19.1098 32.0491C19.1867 32.0491 19.264 32.0341 19.3376 32.0031L23.4289 30.2758C23.5062 30.243 23.5742 30.1937 23.6295 30.1337C23.637 30.1272 23.6445 30.1211 23.6515 30.1136L33.8712 19.8939C34.1004 19.6656 34.1004 19.2944 33.8712 19.0656ZM20.2104 30.3625L21.0382 28.4017L22.1712 29.5347L20.2104 30.3625ZM23.2376 28.8709L21.7024 27.3358L31.0934 17.9448L32.6285 19.48L23.2376 28.8709ZM32.0182 32.298H18.5426C18.2192 32.298 17.9567 32.5605 17.9567 32.8839C17.9567 33.2073 18.2192 33.4698 18.5426 33.4698H32.0178C32.3412 33.4698 32.6037 33.2073 32.6037 32.8839C32.6037 32.5605 32.3417 32.298 32.0182 32.298Z" fill="black"/>
</g>
<defs>
<clipPath id="clip0_98_302">
<rect width="50" height="50" fill="white" transform="translate(0.5)"/>
</clipPath>
</defs>
</svg>
