<svg xmlns="http://www.w3.org/2000/svg" version="1.1" xmlns:xlink="http://www.w3.org/1999/xlink" xmlns:svgjs="http://svgjs.com/svgjs" width="512" height="512" x="0" y="0" viewBox="0 0 512 512" style="enable-background:new 0 0 512 512" xml:space="preserve" class=""><g><g fill-rule="evenodd" clip-rule="evenodd"><path fill="#fe646f" d="m155.983 334.773 79.023 32.055-62.246 133.7a2.936 2.936 0 0 1-2.584 1.731 2.936 2.936 0 0 1-2.73-1.489l-23.192-39.91-45.471 7.945c-1.129.197-2.2-.22-2.897-1.13s-.823-2.052-.339-3.091z" data-original="#fe646f"></path><path fill="#fd4755" d="m219.629 360.59 15.377 6.238-31.206 67.027-1.239 2.661-1.239 2.661-1.239 2.661-1.239 2.661-1.239 2.661-1.239 2.661-1.239 2.661-1.239 2.661-1.239 2.661-1.239 2.661-1.239 2.661-1.239 2.661-1.239 2.661-1.239 2.661-1.239 2.661-1.239 2.661-1.239 2.661-1.239 2.661-1.239 2.661-1.239 2.661-1.239 2.661-1.239 2.661-1.239 2.661-1.239 2.661-1.239 2.661-.065.14-.023.049a2.932 2.932 0 0 1-2.561 1.682 2.936 2.936 0 0 1-2.73-1.489l-7.262-12.497 48.167-103.459z" data-original="#fd4755"></path><path fill="#fe646f" d="m357.179 334.773-79.023 32.055 62.246 133.7c.484 1.039 1.439 1.679 2.584 1.731s2.154-.498 2.73-1.49l23.191-39.91 45.471 7.945c1.129.197 2.2-.22 2.897-1.13s.823-2.052.339-3.091z" data-original="#fe646f"></path><path fill="#fd4755" d="m357.179 334.773-15.377 6.238 58.338 125.306 14.238 2.488c1.129.197 2.2-.22 2.897-1.13s.823-2.052.339-3.091z" data-original="#fd4755"></path><path fill="#ffe177" d="m282.097 18.558 26.237 19.639c7.176 5.371 14.729 8.12 23.678 8.618l32.722 1.82c19.594 1.09 35.507 14.443 39.983 33.55l7.475 31.909c2.044 8.727 6.063 15.688 12.598 21.821l23.897 22.429c14.309 13.429 17.916 33.887 9.063 51.401l-14.785 29.249c-4.043 7.999-5.439 15.915-4.375 24.814l3.89 32.542c2.329 19.485-8.058 37.475-26.097 45.201l-30.127 12.902c-8.24 3.529-14.397 8.695-19.303 16.197l-17.938 27.428c-10.74 16.423-30.261 23.528-49.046 17.851l-31.372-9.481c-8.58-2.593-16.617-2.593-25.197 0l-31.372 9.481c-18.785 5.677-38.305-1.428-49.046-17.851l-17.938-27.428c-4.906-7.502-11.063-12.668-19.303-16.196L95.617 341.55c-18.039-7.725-28.426-25.716-26.097-45.201l3.89-32.542c1.063-8.9-.332-16.815-4.376-24.814l-14.785-29.249c-8.853-17.513-5.246-37.971 9.063-51.401l23.897-22.429c6.535-6.134 10.554-13.094 12.598-21.821l7.475-31.909c4.476-19.107 20.389-32.46 39.983-33.55l32.722-1.82c8.95-.498 16.503-3.247 23.678-8.618l26.237-19.639c15.711-11.759 36.485-11.759 52.195.001z" data-original="#ffe177" class=""></path><path fill="#ffd064" d="m282.097 18.558 26.237 19.639c7.176 5.371 14.729 8.12 23.678 8.618l32.722 1.82c19.594 1.09 35.507 14.442 39.983 33.549l7.475 31.909c2.044 8.727 6.063 15.688 12.598 21.822l23.897 22.429c14.309 13.429 17.916 33.887 9.063 51.4l-14.785 29.249c-4.044 8-5.439 15.915-4.376 24.814l3.89 32.542c2.329 19.485-8.057 37.475-26.097 45.201l-30.127 12.902c-8.239 3.529-14.396 8.695-19.302 16.197l-17.938 27.428c-9.929 15.182-27.36 22.399-44.777 18.92 11.033-2.246 20.959-8.82 27.564-18.92l17.938-27.428c4.906-7.502 11.063-12.668 19.302-16.197l30.127-12.902c18.039-7.725 28.426-25.716 26.097-45.201l-3.89-32.542c-1.064-8.9.332-16.815 4.376-24.814l14.785-29.249c8.853-17.513 5.246-37.971-9.063-51.4l-23.897-22.429c-6.535-6.134-10.554-13.095-12.598-21.822l-7.475-31.909c-4.476-19.107-20.389-32.46-39.983-33.549l-32.722-1.82c-8.95-.498-16.503-3.247-23.678-8.618l-26.237-19.639c-5.373-4.022-11.338-6.667-17.49-7.938 11.836-2.446 24.365.2 34.703 7.938zm-34.704 386.863c-1.32.279-2.649.621-3.992 1.027l-31.372 9.481c-7.233 2.186-14.574 2.475-21.481 1.069a45.588 45.588 0 0 0 4.268-1.069l31.372-9.481c7.238-2.188 14.089-2.53 21.205-1.027z" data-original="#ffd064" class=""></path><circle cx="256" cy="213.799" r="133.867" fill="#ffd064" transform="rotate(-45 255.98 213.862)" data-original="#ffd064" class=""></circle><path fill="#ffc338" d="M256 79.932c2.892 0 5.76.102 8.606.283-69.921 4.438-125.26 62.543-125.26 133.584 0 71.04 55.34 129.146 125.26 133.584-2.846.181-5.714.283-8.606.283-73.933 0-133.867-59.934-133.867-133.866 0-73.934 59.934-133.868 133.867-133.868z" data-original="#ffc338"></path><path fill="#eceff1" d="m239.264 225.039 61.962-62.58c7.335-7.408 19.301-7.429 26.687-.083 7.385 7.344 7.408 19.276.082 26.67-25.126 25.359-50.082 50.885-75.324 76.128-7.379 7.379-19.35 7.379-26.729 0l-41.879-41.878c-7.379-7.379-7.379-19.35 0-26.729s19.35-7.379 26.73 0z" data-original="#eceff1"></path></g></g></svg>