<svg width="51" height="50" viewBox="0 0 51 50" fill="none" xmlns="http://www.w3.org/2000/svg">
<g clip-path="url(#clip0_98_330)">
<circle cx="25.5" cy="25" r="25" fill="#F5CA16"/>
<g clip-path="url(#clip1_98_330)">
<path d="M25.992 37C25.9115 37 25.8322 36.9804 25.761 36.943L14.269 30.943C14.188 30.9008 14.12 30.8371 14.0726 30.759C14.0252 30.6809 14.0001 30.5913 14 30.5V19.25C14.0001 19.1648 14.0219 19.0811 14.0634 19.0068C14.1049 18.9325 14.1647 18.87 14.2371 18.8252C14.3095 18.7804 14.3921 18.7549 14.4771 18.751C14.5622 18.7471 14.6468 18.765 14.723 18.803L26.215 24.553C26.2979 24.5945 26.3677 24.6584 26.4164 24.7373C26.4652 24.8162 26.491 24.9072 26.491 25V36.5C26.491 36.6324 26.4385 36.7594 26.3449 36.8532C26.2514 36.9469 26.1244 36.9997 25.992 37ZM15 30.197L25.492 35.675V25.309L15 20.059V30.197Z" fill="black"/>
<path d="M26.0081 37C25.9424 37.0001 25.8773 36.9873 25.8166 36.9622C25.7558 36.9371 25.7007 36.9003 25.6542 36.8538C25.6078 36.8074 25.5709 36.7522 25.5458 36.6915C25.5208 36.6308 25.5079 36.5657 25.5081 36.5V25C25.5081 24.9072 25.5339 24.8163 25.5826 24.7373C25.6314 24.6584 25.7011 24.5945 25.7841 24.553L37.2761 18.803C37.3523 18.7648 37.437 18.7467 37.5222 18.7505C37.6074 18.7543 37.6902 18.7798 37.7627 18.8246C37.8353 18.8693 37.8952 18.9319 37.9367 19.0064C37.9782 19.0809 38.0001 19.1647 38.0001 19.25V30.5C38 30.5914 37.9749 30.681 37.9274 30.7591C37.88 30.8372 37.8121 30.9008 37.7311 30.943L26.2391 36.943C26.1678 36.9804 26.0885 37 26.0081 37ZM26.5081 25.309V35.675L37.0001 30.197V20.059L26.5081 25.309Z" fill="black"/>
<path d="M14.5 19.75C14.3874 19.75 14.2781 19.712 14.1898 19.6421C14.1015 19.5723 14.0393 19.4746 14.0134 19.3651C13.9875 19.2555 13.9993 19.1404 14.047 19.0384C14.0946 18.9364 14.1753 18.8534 14.276 18.803L25.784 13.053C25.8534 13.0185 25.9299 13.0005 26.0075 13.0005C26.085 13.0005 26.1615 13.0185 26.231 13.053L37.723 18.803C37.8417 18.8623 37.9319 18.9663 37.9739 19.0921C38.0159 19.2179 38.0062 19.3553 37.947 19.474C37.8877 19.5927 37.7837 19.6829 37.6579 19.725C37.532 19.767 37.3947 19.7573 37.276 19.698L26.008 14.059L14.724 19.697C14.6545 19.7319 14.5777 19.7501 14.5 19.75Z" fill="black"/>
<path d="M32 28C31.8674 28 31.7402 27.9473 31.6464 27.8535C31.5527 27.7597 31.5 27.6326 31.5 27.5V22.309L20.284 16.697C20.2252 16.6675 20.1728 16.6268 20.1298 16.5772C20.0868 16.5275 20.0539 16.4698 20.0332 16.4075C20.0124 16.3451 20.0042 16.2793 20.0088 16.2138C20.0135 16.1482 20.0311 16.0842 20.0605 16.0255C20.0899 15.9667 20.1306 15.9143 20.1803 15.8713C20.23 15.8282 20.2876 15.7954 20.35 15.7746C20.4123 15.7539 20.4781 15.7456 20.5437 15.7503C20.6092 15.755 20.6732 15.7725 20.732 15.802L32.224 21.552C32.3069 21.5939 32.3765 21.6579 32.4253 21.737C32.474 21.8161 32.4998 21.9071 32.5 22V27.5C32.5 27.6326 32.4473 27.7597 32.3536 27.8535C32.2598 27.9473 32.1326 28 32 28Z" fill="black"/>
</g>
</g>
<defs>
<clipPath id="clip0_98_330">
<rect width="50" height="50" fill="white" transform="translate(0.5)"/>
</clipPath>
<clipPath id="clip1_98_330">
<rect width="24" height="24" fill="white" transform="translate(14 13)"/>
</clipPath>
</defs>
</svg>
