<svg width="92" height="16" viewBox="0 0 92 16" fill="none" xmlns="http://www.w3.org/2000/svg">
<g clip-path="url(#clip0_104_448)">
<path d="M5.4953 4.89328L1.24197 5.50995L1.16663 5.52528C1.05259 5.55556 0.948629 5.61555 0.865361 5.69915C0.782092 5.78274 0.722502 5.88694 0.692674 6.0011C0.662847 6.11526 0.663851 6.23529 0.695584 6.34893C0.727318 6.46257 0.788644 6.56576 0.873299 6.64795L3.95463 9.64728L3.22797 13.8839L3.2193 13.9573C3.21232 14.0752 3.23681 14.1929 3.29027 14.2983C3.34372 14.4037 3.42422 14.4929 3.52352 14.557C3.62282 14.621 3.73736 14.6575 3.8554 14.6627C3.97344 14.6679 4.09074 14.6416 4.1953 14.5866L7.9993 12.5866L11.7946 14.5866L11.8613 14.6173C11.9713 14.6606 12.0909 14.6739 12.2078 14.6558C12.3247 14.6377 12.4346 14.5888 12.5264 14.5141C12.6181 14.4395 12.6883 14.3418 12.7299 14.231C12.7714 14.1203 12.7827 14.0005 12.7626 13.8839L12.0353 9.64728L15.118 6.64728L15.17 6.59062C15.2442 6.49913 15.2929 6.38958 15.3111 6.27315C15.3293 6.15671 15.3162 6.03753 15.2734 5.92777C15.2305 5.818 15.1592 5.72157 15.067 5.64829C14.9747 5.57501 14.8646 5.52751 14.748 5.51062L10.4946 4.89328L8.5933 1.03995C8.53828 0.928305 8.45311 0.834292 8.34743 0.768551C8.24174 0.702811 8.11976 0.667969 7.9953 0.667969C7.87084 0.667969 7.74886 0.702811 7.64317 0.768551C7.53749 0.834292 7.45232 0.928305 7.3973 1.03995L5.4953 4.89328Z" fill="#FFB800"/>
</g>
<g clip-path="url(#clip1_104_448)">
<path d="M24.4953 4.89328L20.242 5.50995L20.1666 5.52528C20.0526 5.55556 19.9486 5.61555 19.8654 5.69915C19.7821 5.78274 19.7225 5.88694 19.6927 6.0011C19.6628 6.11526 19.6639 6.23529 19.6956 6.34893C19.7273 6.46257 19.7886 6.56576 19.8733 6.64795L22.9546 9.64728L22.228 13.8839L22.2193 13.9573C22.2123 14.0752 22.2368 14.1929 22.2903 14.2983C22.3437 14.4037 22.4242 14.4929 22.5235 14.557C22.6228 14.621 22.7374 14.6575 22.8554 14.6627C22.9734 14.6679 23.0907 14.6416 23.1953 14.5866L26.9993 12.5866L30.7946 14.5866L30.8613 14.6173C30.9713 14.6606 31.0909 14.6739 31.2078 14.6558C31.3247 14.6377 31.4346 14.5888 31.5264 14.5141C31.6181 14.4395 31.6883 14.3418 31.7299 14.231C31.7714 14.1203 31.7827 14.0005 31.7626 13.8839L31.0353 9.64728L34.118 6.64728L34.17 6.59062C34.2442 6.49913 34.2929 6.38958 34.3111 6.27315C34.3293 6.15671 34.3162 6.03753 34.2734 5.92777C34.2305 5.818 34.1592 5.72157 34.067 5.64829C33.9747 5.57501 33.8646 5.52751 33.748 5.51062L29.4946 4.89328L27.5933 1.03995C27.5383 0.928305 27.4531 0.834292 27.3474 0.768551C27.2417 0.702811 27.1198 0.667969 26.9953 0.667969C26.8708 0.667969 26.7489 0.702811 26.6432 0.768551C26.5375 0.834292 26.4523 0.928305 26.3973 1.03995L24.4953 4.89328Z" fill="#FFB800"/>
</g>
<g clip-path="url(#clip2_104_448)">
<path d="M43.4953 4.89328L39.242 5.50995L39.1666 5.52528C39.0526 5.55556 38.9486 5.61555 38.8654 5.69915C38.7821 5.78274 38.7225 5.88694 38.6927 6.0011C38.6628 6.11526 38.6639 6.23529 38.6956 6.34893C38.7273 6.46257 38.7886 6.56576 38.8733 6.64795L41.9546 9.64728L41.228 13.8839L41.2193 13.9573C41.2123 14.0752 41.2368 14.1929 41.2903 14.2983C41.3437 14.4037 41.4242 14.4929 41.5235 14.557C41.6228 14.621 41.7374 14.6575 41.8554 14.6627C41.9734 14.6679 42.0907 14.6416 42.1953 14.5866L45.9993 12.5866L49.7946 14.5866L49.8613 14.6173C49.9713 14.6606 50.0909 14.6739 50.2078 14.6558C50.3247 14.6377 50.4346 14.5888 50.5264 14.5141C50.6181 14.4395 50.6883 14.3418 50.7299 14.231C50.7714 14.1203 50.7827 14.0005 50.7626 13.8839L50.0353 9.64728L53.118 6.64728L53.17 6.59062C53.2442 6.49913 53.2929 6.38958 53.3111 6.27315C53.3293 6.15671 53.3162 6.03753 53.2734 5.92777C53.2305 5.818 53.1592 5.72157 53.067 5.64829C52.9747 5.57501 52.8646 5.52751 52.748 5.51062L48.4946 4.89328L46.5933 1.03995C46.5383 0.928305 46.4531 0.834292 46.3474 0.768551C46.2417 0.702811 46.1198 0.667969 45.9953 0.667969C45.8708 0.667969 45.7489 0.702811 45.6432 0.768551C45.5375 0.834292 45.4523 0.928305 45.3973 1.03995L43.4953 4.89328Z" fill="#FFB800"/>
</g>
<g clip-path="url(#clip3_104_448)">
<path d="M62.4953 4.89328L58.242 5.50995L58.1666 5.52528C58.0526 5.55556 57.9486 5.61555 57.8654 5.69915C57.7821 5.78274 57.7225 5.88694 57.6927 6.0011C57.6628 6.11526 57.6639 6.23529 57.6956 6.34893C57.7273 6.46257 57.7886 6.56576 57.8733 6.64795L60.9546 9.64728L60.228 13.8839L60.2193 13.9573C60.2123 14.0752 60.2368 14.1929 60.2903 14.2983C60.3437 14.4037 60.4242 14.4929 60.5235 14.557C60.6228 14.621 60.7374 14.6575 60.8554 14.6627C60.9734 14.6679 61.0907 14.6416 61.1953 14.5866L64.9993 12.5866L68.7946 14.5866L68.8613 14.6173C68.9713 14.6606 69.0909 14.6739 69.2078 14.6558C69.3247 14.6377 69.4346 14.5888 69.5264 14.5141C69.6181 14.4395 69.6883 14.3418 69.7299 14.231C69.7714 14.1203 69.7827 14.0005 69.7626 13.8839L69.0353 9.64728L72.118 6.64728L72.17 6.59062C72.2442 6.49913 72.2929 6.38958 72.3111 6.27315C72.3293 6.15671 72.3162 6.03753 72.2734 5.92777C72.2305 5.818 72.1592 5.72157 72.067 5.64829C71.9747 5.57501 71.8646 5.52751 71.748 5.51062L67.4946 4.89328L65.5933 1.03995C65.5383 0.928305 65.4531 0.834292 65.3474 0.768551C65.2417 0.702811 65.1198 0.667969 64.9953 0.667969C64.8708 0.667969 64.7489 0.702811 64.6432 0.768551C64.5375 0.834292 64.4523 0.928305 64.3973 1.03995L62.4953 4.89328Z" fill="#FFB800"/>
</g>
<g clip-path="url(#clip4_104_448)">
<path d="M81.4953 4.89328L77.242 5.50995L77.1666 5.52528C77.0526 5.55556 76.9486 5.61555 76.8654 5.69915C76.7821 5.78274 76.7225 5.88694 76.6927 6.0011C76.6628 6.11526 76.6639 6.23529 76.6956 6.34893C76.7273 6.46257 76.7886 6.56576 76.8733 6.64795L79.9546 9.64728L79.228 13.8839L79.2193 13.9573C79.2123 14.0752 79.2368 14.1929 79.2903 14.2983C79.3437 14.4037 79.4242 14.4929 79.5235 14.557C79.6228 14.621 79.7374 14.6575 79.8554 14.6627C79.9734 14.6679 80.0907 14.6416 80.1953 14.5866L83.9993 12.5866L87.7946 14.5866L87.8613 14.6173C87.9713 14.6606 88.0909 14.6739 88.2078 14.6558C88.3247 14.6377 88.4346 14.5888 88.5264 14.5141C88.6181 14.4395 88.6883 14.3418 88.7299 14.231C88.7714 14.1203 88.7827 14.0005 88.7626 13.8839L88.0353 9.64728L91.118 6.64728L91.17 6.59062C91.2442 6.49913 91.2929 6.38958 91.3111 6.27315C91.3293 6.15671 91.3162 6.03753 91.2734 5.92777C91.2305 5.818 91.1592 5.72157 91.067 5.64829C90.9747 5.57501 90.8646 5.52751 90.748 5.51062L86.4946 4.89328L84.5933 1.03995C84.5383 0.928305 84.4531 0.834292 84.3474 0.768551C84.2417 0.702811 84.1198 0.667969 83.9953 0.667969C83.8708 0.667969 83.7489 0.702811 83.6432 0.768551C83.5375 0.834292 83.4523 0.928305 83.3973 1.03995L81.4953 4.89328Z" fill="#FFB800"/>
</g>
<defs>
<clipPath id="clip0_104_448">
<rect width="16" height="16" fill="white"/>
</clipPath>
<clipPath id="clip1_104_448">
<rect width="16" height="16" fill="white" transform="translate(19)"/>
</clipPath>
<clipPath id="clip2_104_448">
<rect width="16" height="16" fill="white" transform="translate(38)"/>
</clipPath>
<clipPath id="clip3_104_448">
<rect width="16" height="16" fill="white" transform="translate(57)"/>
</clipPath>
<clipPath id="clip4_104_448">
<rect width="16" height="16" fill="white" transform="translate(76)"/>
</clipPath>
</defs>
</svg>
