<svg width="40" height="40" viewBox="0 0 40 40" fill="none" xmlns="http://www.w3.org/2000/svg">
<circle cx="20" cy="20" r="20" fill="#FF00A5"/>
<path d="M16.6345 28.2691C16.3845 28.2694 16.1369 28.2203 15.9059 28.1246C15.675 28.029 15.4652 27.8886 15.2886 27.7115L8.55764 20.9806C7.81412 20.237 7.81412 19.0318 8.55764 18.2883C9.30115 17.5447 10.5064 17.5447 11.2499 18.2883L16.6345 23.6729L28.7501 11.5575C29.1071 11.2005 29.5913 11 30.0961 11C30.601 11 31.0852 11.2005 31.4422 11.5575C31.619 11.7342 31.7593 11.9441 31.855 12.1751C31.9507 12.4061 32 12.6536 32 12.9037C32 13.1537 31.9507 13.4013 31.855 13.6322C31.7593 13.8632 31.619 14.0731 31.4422 14.2498L17.9807 27.7115C17.8041 27.8885 17.5942 28.0289 17.3632 28.1246C17.1322 28.2202 16.8846 28.2693 16.6345 28.2691Z" fill="white"/>
</svg>
